<svg height="512" viewBox="0 0 256 256" width="512" xmlns="http://www.w3.org/2000/svg"><rect fill="#63bce7" height="136.606" rx="9.6" width="169.991" x="17.473" y="20.059"/><path d="m27.473 147.065v-117.406a9.628 9.628 0 0 1 9.6-9.6h-10a9.628 9.628 0 0 0 -9.6 9.6v117.406a9.628 9.628 0 0 0 9.6 9.6h10a9.628 9.628 0 0 1 -9.6-9.6z" fill="#6377e7"/><path d="m177.464 147.065v-117.406a9.628 9.628 0 0 0 -9.6-9.6h10a9.628 9.628 0 0 1 9.6 9.6v117.406a9.628 9.628 0 0 1 -9.6 9.6h-10a9.628 9.628 0 0 0 9.6-9.6z" fill="#63e2e7"/><path d="m187.464 29.664a9.633 9.633 0 0 0 -9.6-9.6h-150.786a9.633 9.633 0 0 0 -9.6 9.6v22.088h169.986z" fill="#cecece"/><path d="m37.078 20.059h-10a9.633 9.633 0 0 0 -9.6 9.6v22.093h10v-22.088a9.633 9.633 0 0 1 9.6-9.605z" fill="#afafaf"/><path d="m167.859 20.059h10a9.633 9.633 0 0 1 9.6 9.6v22.093h-10v-22.088a9.633 9.633 0 0 0 -9.6-9.605z" fill="#e2e2e2"/><circle cx="37.423" cy="35.905" fill="#f8af23" r="6.627"/><circle cx="57.737" cy="35.905" fill="#f8af23" r="6.627"/><circle cx="78.05" cy="35.905" fill="#f8af23" r="6.627"/><rect fill="#9e9e9e" height="5.803" rx="2.901" width="41.22" x="132.921" y="32.971"/><path d="m30.796 63.313h71.376v10.842h-71.376z" fill="#f46275"/><path d="m114.326 63.313h29.573v10.842h-29.573z" fill="#f46275"/><path d="m30.796 88.362h49.226v10.842h-49.226z" fill="#f46275"/><rect fill="#cecece" height="136.606" rx="9.6" width="169.991" x="68.536" y="88.362"/><path d="m238.527 97.967a9.633 9.633 0 0 0 -9.6-9.6h-150.786a9.633 9.633 0 0 0 -9.6 9.6v22.088h169.986z" fill="#f8af23"/><path d="m228.927 88.362h-10a9.628 9.628 0 0 1 9.6 9.6v117.406a9.628 9.628 0 0 1 -9.6 9.6h10a9.628 9.628 0 0 0 9.6-9.6v-117.406a9.628 9.628 0 0 0 -9.6-9.6z" fill="#e2e2e2"/><path d="m228.922 88.362h-10a9.633 9.633 0 0 1 9.6 9.6v22.088h10v-22.083a9.633 9.633 0 0 0 -9.6-9.605z" fill="#f8d323"/><circle cx="88.486" cy="104.208" fill="#f46275" r="6.627"/><circle cx="108.799" cy="104.208" fill="#f46275" r="6.627"/><circle cx="129.113" cy="104.208" fill="#f46275" r="6.627"/><rect fill="#9e9e9e" height="5.803" rx="2.901" width="41.22" x="183.984" y="101.274"/><path d="m32.27 137.046 10.208-10.208a2.223 2.223 0 0 1 3.143 0l10.208 10.208a2.223 2.223 0 0 1 -1.572 3.794h-20.415a2.223 2.223 0 0 1 -1.572-3.794z" fill="#f8af23"/><path d="m219.456 71.371-10.209 10.208a2.223 2.223 0 0 1 -3.143 0l-10.204-10.208a2.223 2.223 0 0 1 1.572-3.794h20.417a2.223 2.223 0 0 1 1.567 3.794z" fill="#63bce7"/><path d="m84.678 136.949h60v8.427h-60z" fill="#f46275"/><path d="m110.678 155.408h41.5v8.427h-41.5z" fill="#f46275"/><path d="m159.678 155.408h54.5v8.427h-54.5z" fill="#f46275"/><path d="m110.678 170.657h24.5v8.427h-24.5z" fill="#f8af23"/><path d="m145.178 170.657h69v8.427h-69z" fill="#f8af23"/><path d="m84.678 188.313h60v8.427h-60z" fill="#63bce7"/><path d="m154.178 188.313h60v8.427h-60z" fill="#63bce7"/><g fill="#3f3679"><path d="m37.423 44.033a8.127 8.127 0 1 0 -8.123-8.128 8.137 8.137 0 0 0 8.123 8.128zm0-13.255a5.127 5.127 0 1 1 -5.123 5.127 5.133 5.133 0 0 1 5.123-5.127z"/><path d="m57.737 44.033a8.127 8.127 0 1 0 -8.127-8.127 8.137 8.137 0 0 0 8.127 8.127zm0-13.255a5.127 5.127 0 1 1 -5.127 5.127 5.133 5.133 0 0 1 5.127-5.127z"/><path d="m78.05 44.033a8.127 8.127 0 1 0 -8.127-8.127 8.137 8.137 0 0 0 8.127 8.127zm0-13.255a5.127 5.127 0 1 1 -5.127 5.127 5.133 5.133 0 0 1 5.127-5.127z"/><path d="m135.823 40.273h35.417a4.4 4.4 0 1 0 0-8.8h-35.417a4.4 4.4 0 1 0 0 8.8zm0-5.8h35.417a1.4 1.4 0 1 1 0 2.8h-35.417a1.4 1.4 0 1 1 0-2.8z"/><path d="m30.8 75.656h71.376a1.5 1.5 0 0 0 1.5-1.5v-10.843a1.5 1.5 0 0 0 -1.5-1.5h-71.376a1.5 1.5 0 0 0 -1.5 1.5v10.843a1.5 1.5 0 0 0 1.5 1.5zm1.5-10.842h68.376v7.842h-68.376z"/><path d="m114.327 75.656h29.573a1.5 1.5 0 0 0 1.5-1.5v-10.843a1.5 1.5 0 0 0 -1.5-1.5h-29.573a1.5 1.5 0 0 0 -1.5 1.5v10.843a1.5 1.5 0 0 0 1.5 1.5zm1.5-10.842h26.573v7.842h-26.573z"/><path d="m88.486 112.336a8.127 8.127 0 1 0 -8.127-8.127 8.137 8.137 0 0 0 8.127 8.127zm0-13.255a5.127 5.127 0 1 1 -5.127 5.127 5.133 5.133 0 0 1 5.127-5.127z"/><path d="m108.8 112.336a8.127 8.127 0 1 0 -8.127-8.127 8.137 8.137 0 0 0 8.127 8.127zm0-13.255a5.127 5.127 0 1 1 -5.127 5.127 5.133 5.133 0 0 1 5.127-5.127z"/><path d="m129.113 112.336a8.127 8.127 0 1 0 -8.127-8.127 8.137 8.137 0 0 0 8.127 8.127zm0-13.255a5.127 5.127 0 1 1 -5.127 5.127 5.133 5.133 0 0 1 5.127-5.127z"/><path d="m186.886 108.576h35.414a4.4 4.4 0 1 0 0-8.8h-35.414a4.4 4.4 0 0 0 0 8.8zm0-5.8h35.414a1.4 1.4 0 1 1 0 2.8h-35.414a1.4 1.4 0 1 1 0-2.8z"/><path d="m27.323 234.441h-18a1.5 1.5 0 1 0 0 3h18a1.5 1.5 0 0 0 0-3z"/><path d="m246.68 234.441h-18a1.5 1.5 0 0 0 0 3h18a1.5 1.5 0 1 0 0-3z"/><path d="m218.479 234.441h-180.958a1.5 1.5 0 0 0 0 3h180.958a1.5 1.5 0 0 0 0-3z"/><path d="m9.32 226.468h237.36a1.5 1.5 0 0 0 0-3h-10.188a11.06 11.06 0 0 0 3.535-8.1v-117.406a11.113 11.113 0 0 0 -11.1-11.1h-39.963v-49.468c.038 0 .074.011.113.011h9a8.109 8.109 0 0 1 8.1 8.1v20.571h-8.708a3.723 3.723 0 0 0 -2.632 6.355l10.206 10.209a3.726 3.726 0 0 0 5.265 0l10.208-10.208a3.723 3.723 0 0 0 -2.633-6.355h-8.708v-20.572a11.113 11.113 0 0 0 -11.1-11.1h-9c-.039 0-.075.009-.113.011v-4.757a11.113 11.113 0 0 0 -11.1-11.1h-150.789a11.113 11.113 0 0 0 -11.1 11.1v117.406a11.113 11.113 0 0 0 11.1 11.1h15.478v4.746a11.113 11.113 0 0 0 11.1 11.1h13.385v41.356a11.06 11.06 0 0 0 3.535 8.1h-61.251a1.5 1.5 0 1 0 0 3zm209.232-156.946a.7.7 0 0 1 -.157.788l-10.208 10.209a.725.725 0 0 1 -1.022 0l-10.209-10.209a.723.723 0 0 1 .511-1.234h20.417a.7.7 0 0 1 .668.446zm18.475 28.444v20.588h-166.991v-20.587a8.114 8.114 0 0 1 8.1-8.1h150.786a8.114 8.114 0 0 1 8.105 8.1zm-204.727-.266v-7.838h38.271a11.056 11.056 0 0 0 -3.522 7.838zm145.559-76.141a8.114 8.114 0 0 1 8.1 8.1v20.592h-166.986v-20.587a8.114 8.114 0 0 1 8.1-8.1zm-150.786 133.606a8.109 8.109 0 0 1 -8.1-8.1v-93.814h166.991v33.611h-155.164a1.5 1.5 0 0 0 -1.5 1.5v10.838a1.5 1.5 0 0 0 1.5 1.5h36.24v54.46h-21.489v-12.82h8.708a3.723 3.723 0 0 0 2.632-6.355l-10.208-10.208a3.728 3.728 0 0 0 -5.264 0l-10.209 10.208a3.723 3.723 0 0 0 2.632 6.355h8.708v12.825zm6.769-15.825a.723.723 0 0 1 -.511-1.234l10.209-10.206a.724.724 0 0 1 1.022 0l10.208 10.206a.723.723 0 0 1 -.511 1.234zm19.808 31.671a8.109 8.109 0 0 1 -8.1-8.1v-4.746h21.486v12.846zm16.386 44.356v-93.812h166.991v93.813a8.109 8.109 0 0 1 -8.1 8.1h-150.791a8.109 8.109 0 0 1 -8.1-8.1z"/><path d="m84.678 146.875h60a1.5 1.5 0 0 0 1.5-1.5v-8.427a1.5 1.5 0 0 0 -1.5-1.5h-60a1.5 1.5 0 0 0 -1.5 1.5v8.427a1.5 1.5 0 0 0 1.5 1.5zm1.5-8.427h57v5.427h-57z"/><path d="m109.178 155.408v8.427a1.5 1.5 0 0 0 1.5 1.5h41.5a1.5 1.5 0 0 0 1.5-1.5v-8.427a1.5 1.5 0 0 0 -1.5-1.5h-41.5a1.5 1.5 0 0 0 -1.5 1.5zm3 1.5h38.5v5.427h-38.5z"/><path d="m214.178 153.908h-54.5a1.5 1.5 0 0 0 -1.5 1.5v8.427a1.5 1.5 0 0 0 1.5 1.5h54.5a1.5 1.5 0 0 0 1.5-1.5v-8.427a1.5 1.5 0 0 0 -1.5-1.5zm-1.5 8.427h-51.5v-5.427h51.5z"/><path d="m110.678 169.157a1.5 1.5 0 0 0 -1.5 1.5v8.427a1.5 1.5 0 0 0 1.5 1.5h24.5a1.5 1.5 0 0 0 1.5-1.5v-8.427a1.5 1.5 0 0 0 -1.5-1.5zm23 8.427h-21.5v-5.427h21.5z"/><path d="m214.178 169.157h-69a1.5 1.5 0 0 0 -1.5 1.5v8.427a1.5 1.5 0 0 0 1.5 1.5h69a1.5 1.5 0 0 0 1.5-1.5v-8.427a1.5 1.5 0 0 0 -1.5-1.5zm-1.5 8.427h-66v-5.427h66z"/><path d="m144.678 186.813h-60a1.5 1.5 0 0 0 -1.5 1.5v8.427a1.5 1.5 0 0 0 1.5 1.5h60a1.5 1.5 0 0 0 1.5-1.5v-8.427a1.5 1.5 0 0 0 -1.5-1.5zm-1.5 8.427h-57v-5.427h57z"/><path d="m214.178 186.813h-60a1.5 1.5 0 0 0 -1.5 1.5v8.427a1.5 1.5 0 0 0 1.5 1.5h60a1.5 1.5 0 0 0 1.5-1.5v-8.427a1.5 1.5 0 0 0 -1.5-1.5zm-1.5 8.427h-57v-5.427h57z"/></g></svg>