<?xml version="1.0" encoding="iso-8859-1"?>
<!-- Generator: Adobe Illustrator 18.0.0, SVG Export Plug-In . SVG Version: 6.00 Build 0)  -->
<!DOCTYPE svg PUBLIC "-//W3C//DTD SVG 1.1//EN" "http://www.w3.org/Graphics/SVG/1.1/DTD/svg11.dtd">
<svg version="1.1" id="Capa_1" xmlns="http://www.w3.org/2000/svg" xmlns:xlink="http://www.w3.org/1999/xlink" x="0px" y="0px"
	 viewBox="0 0 389.768 389.768" style="enable-background:new 0 0 389.768 389.768;" xml:space="preserve">
<g>
	<path d="M155.718,243.765c-4.418,0-8,3.582-8,8c0,4.418,3.582,8,8,8c40.251,0,72.997-32.746,72.997-72.997
		s-32.746-72.997-72.997-72.997c-4.418,0-8,3.582-8,8s3.582,8,8,8c31.429,0,56.997,25.568,56.997,56.997
		S187.147,243.765,155.718,243.765z"/>
	<path d="M155.718,292.268c58.173,0,105.5-47.327,105.5-105.5c0-42.599-25.38-80.79-64.658-97.299
		c-4.075-1.714-8.763,0.203-10.475,4.275c-1.712,4.073,0.202,8.763,4.275,10.475c33.324,14.006,54.857,46.408,54.857,82.549
		c0,49.351-40.149,89.5-89.5,89.5c-4.418,0-8,3.582-8,8C147.718,288.686,151.3,292.268,155.718,292.268z"/>
	<path d="M277.721,186.768c0,67.272-54.73,122.003-122.003,122.003c-4.418,0-8,3.582-8,8s3.582,8,8,8
		c76.095,0,138.003-61.908,138.003-138.003S231.813,48.765,155.718,48.765c-16.198,0-32.064,2.782-47.159,8.27
		c-4.152,1.51-6.295,6.1-4.785,10.252c1.51,4.152,6.097,6.296,10.252,4.785c13.337-4.849,27.364-7.307,41.692-7.307
		C222.991,64.765,277.721,119.496,277.721,186.768z"/>
	<path d="M310.215,186.768c0,85.19-69.307,154.497-154.497,154.497c-4.418,0-8,3.582-8,8c0,4.418,3.582,8,8,8
		c94.013,0,170.497-76.484,170.497-170.497S249.731,16.271,155.718,16.271c-46.535,0-90.008,18.402-122.411,51.816
		c-3.076,3.172-2.998,8.236,0.174,11.313c3.174,3.076,8.238,2.997,11.313-0.174c29.363-30.279,68.757-46.955,110.925-46.955
		C240.909,32.271,310.215,101.578,310.215,186.768z"/>
	<path d="M236.933,0.672c-4.047-1.77-8.765,0.077-10.534,4.126c-1.77,4.049,0.078,8.766,4.126,10.534
		c68.155,29.787,112.193,97.079,112.193,171.436c0,103.112-83.888,187-187,187c-4.418,0-8,3.582-8,8c0,4.418,3.582,8,8,8
		c111.935,0,203-91.065,203-203C358.718,106.052,310.915,33.005,236.933,0.672z"/>
</g>
<g>
</g>
<g>
</g>
<g>
</g>
<g>
</g>
<g>
</g>
<g>
</g>
<g>
</g>
<g>
</g>
<g>
</g>
<g>
</g>
<g>
</g>
<g>
</g>
<g>
</g>
<g>
</g>
<g>
</g>
</svg>
